<svg version="1.2" xmlns="http://www.w3.org/2000/svg" viewBox="0 0 1080 348" width="1080" height="348">
	<title>ReservaFacil Logo</title>
	<style>
		.s0 { fill: #fa771f } 
		.s1 { fill: #2e2e2e } 
		.s2 { fill: #49a84c } 
	</style>
	<g id="Background">
		<path id="Path 0" class="s0" d="m76.3 2c-1.2 0.4-3.1 2.1-4.3 3.7-1.8 2.5-2.1 4.2-2 15v12.3c-34.8 0.5-35.7 0.6-41.3 3.2-3.1 1.6-8.1 5-10.9 7.7-2.9 2.7-6.6 7.5-8.3 10.7l-3 5.9v254c4.5 9.4 7.9 14.1 10.8 17 2.9 2.7 7.2 6 9.7 7.2 2.5 1.2 6.3 2.7 8.5 3.2 2.6 0.7 28.4 1.1 73.3 1.1 54.9 0 69.9-0.3 72.5-1.3 1.7-0.7 4.3-2.9 5.6-4.8 1.7-2.3 2.5-4.8 2.5-8.1 0.1-3.3-0.5-5.5-2-7.5-1.2-1.5-3.4-3.7-4.8-4.8-2.7-1.9-4.5-2-72.4-2.3l-69.7-0.2-6-4.8v-242.2c5.5-5.5 5.6-5.5 20.5-5.8l15-0.2c0 24.7 0.1 25.1 2.8 28.1 2.1 2.5 3.7 3.2 7.7 3.6 4.5 0.5 5.3 0.3 8.5-2.5l3.5-3 0.5-26.2h138v25c6.2 6.2 7.8 7 10.5 7 1.9 0 4.6-0.5 6-1 1.4-0.6 3.4-2.5 4.5-4.3 1.7-2.7 2-5 2-15v-11.7c25.7 0 28.4 0.3 30.6 1.7 1.5 1 3.2 2.7 3.8 3.8 0.7 1.4 1.3 18.2 1.6 53.7l0.5 51.8c4.6 4.7 7.6 6.4 9.5 6.9 2 0.5 5.2 0.5 7.5 0 2.3-0.5 5.3-2.1 7-3.9l3-3v-111.5c-4.6-8.5-8.2-13.3-11-16.1-2.7-2.7-7.7-6.3-11-8-5.9-2.8-6.4-2.9-23.7-3.2l-17.8-0.2c0-21.7-0.3-24-2-26.8-1.1-1.7-3.1-3.7-4.5-4.2-1.4-0.6-3.8-1-5.5-1-1.6 0-4.3 0.8-6 1.7-1.6 1-3.4 2.8-4 4-0.5 1.3-1 7.7-1 14.3v12h-138v-25c-6.3-6.3-7.8-7-10.7-6.9-2.1 0-4.8 0.4-6 0.9z"/>
		<path id="Path 1" fill-rule="evenodd" class="s1" d="m382 36h28c21.1 0 29.9 0.4 35.8 1.5 4.3 0.9 10.3 3 13.6 4.8 3.3 1.8 7.7 5.2 9.8 7.7 2.2 2.5 5.1 7 6.6 10 2.5 5.1 2.7 6.5 2.7 18 0 11.8-0.2 12.8-3 18.9-1.8 3.7-4.9 8.1-7.5 10.6-2.5 2.3-6 4.9-7.7 5.8-1.8 0.9-3.3 1.9-3.3 2.2 0 0.3 5.9 11.3 13 24.5 7.1 13.2 13 24.4 13 25 0 0.6-5.4 0.9-29.2 0.5l-24.3-45.5h-20.5v46h-27zm27.5 61.5c22.9 0 27.1-0.4 30.8-1.7 2.8-1.1 5.7-3.1 7.2-5 1.3-1.8 2.7-5.3 3.1-7.8 0.4-2.5 0.4-6.6 0-9.2-0.4-3.2-1.6-5.9-3.3-8-1.6-1.7-4.6-4-6.8-4.9-3.2-1.5-6.7-1.9-17.8-1.9h-13.7zm130-30.4c2.7 0 7.8 0.6 11.2 1.4 3.4 0.8 8.8 2.8 12 4.4 3.2 1.6 7.8 5 10.3 7.8 2.4 2.7 5.6 7.3 7.1 10.3 1.4 3 3.1 7.9 3.7 10.7 0.6 2.9 1.2 9.1 1.2 22.3h-66l0.6 4.2c0.3 2.4 1.4 5.9 2.4 7.8 1 1.9 3.1 4.7 4.6 6.2 1.6 1.5 4.1 3.2 5.6 3.7 1.5 0.6 5.6 1.1 9 1.1 4.1 0 7.7-0.7 10.5-2 2.6-1.2 5-3.3 8.3-9l7.2 0.5c4 0.3 9.6 0.8 17.8 1.5l-1.1 3.2c-0.5 1.8-2.1 5.1-3.3 7.3-1.3 2.2-4.4 5.8-6.8 7.9-2.4 2.2-6.6 5-9.3 6.3-2.8 1.2-7.5 2.8-10.5 3.4-3.2 0.7-10.2 0.9-16.5 0.7-8-0.4-12.6-1.1-16.5-2.7-3.1-1.1-7.8-3.8-10.5-5.9-2.8-2-6.9-6.4-9.1-9.7-2.2-3.3-4.9-8.7-6-12-1.5-4.7-1.9-8.8-1.9-19 0-11.2 0.3-13.9 2.4-20 1.4-3.8 4.3-9.5 6.6-12.5 2.2-3 5.6-6.7 7.5-8.1 1.9-1.4 5.5-3.6 8-4.9 2.4-1.2 7.2-2.8 10.5-3.5 3.3-0.8 8.2-1.4 11-1.4zm-10 23.1c-1.7 0.9-3.8 2.4-4.7 3.4-0.9 1.1-2.3 3.2-3.1 4.9-0.8 1.7-1.8 4.2-2.1 5.7l-0.6 2.8c40.3 0 41-0.1 41-2 0-1.1-0.7-3.7-1.6-5.8-0.9-2-2.5-4.8-3.7-6-1.3-1.3-3.4-3-4.7-3.7-1.4-0.7-4.6-1.5-7-1.8-2.5-0.3-5.9-0.2-7.5 0.2-1.7 0.4-4.4 1.5-6 2.3zm112.2-23.1c2.9-0.1 8.5 0.5 12.5 1.3 4 0.7 9.2 2.3 11.5 3.5 2.3 1.1 5.9 3.6 7.9 5.3 2 1.8 4.7 5 6 7 1.3 2.1 2.7 5.6 3.9 11.6l-6 0.6c-3.3 0.3-8.6 0.7-11.8 0.8-5.7 0.3-5.8 0.2-8.3-3.5-1.3-2-3.9-4.5-5.7-5.4-2-1-5.6-1.7-9.2-1.8-4.5 0-7 0.6-9.8 2.3-2.4 1.4-4 3.2-4.4 4.9-0.3 1.6-0.2 3.9 0.3 5.2 0.5 1.3 2.4 3.2 4.4 4.2 1.9 1 9.3 3 16.5 4.5 7.1 1.4 15.2 3.5 18 4.5 2.7 1 6.9 3.2 9.2 4.9 2.3 1.6 5.3 4.9 6.5 7.2 1.7 3.3 2.2 6 2.2 11.8 0 5.7-0.5 8.5-2.1 11.5-1.2 2.2-4.2 5.9-6.7 8.2-2.6 2.4-6.4 5.2-8.6 6.3-2.2 1.1-6.6 2.7-9.8 3.5-3.3 0.9-10 1.5-15.7 1.5-5.6 0-12.9-0.7-16.5-1.6-3.6-0.8-8.3-2.6-10.5-3.9-2.2-1.3-6-4.3-8.3-6.7-2.5-2.5-5.1-6.5-6.3-9.6-1.1-2.8-1.9-5.9-1.9-6.7 0-1.2 1.5-1.5 8.2-1.5 4.5 0 10.3-0.2 12.8-0.6 4.4-0.5 4.5-0.5 6.5 3.3 1.3 2.5 3.4 4.5 6.5 6.1 3 1.5 6.2 2.2 10 2.2 3.3 0 7-0.8 9.5-1.9 2.2-1.1 4.5-3.2 5.3-4.8 0.7-1.5 1.1-3.8 0.7-5.1-0.3-1.2-2-3.2-3.8-4.4-2-1.3-8.3-3.2-16.7-4.9-7.5-1.5-15.6-3.5-18-4.4-2.5-0.9-6.3-2.9-8.5-4.4-2.4-1.7-5.3-5.1-7-8.2-2.4-4.5-2.9-6.5-2.9-12.4 0-4 0.7-8.5 1.5-10.5 0.8-1.9 3.3-5.4 5.4-7.8 2.2-2.4 6.4-5.5 9.5-6.9 3-1.4 8.4-3.1 12-3.8 3.5-0.7 8.8-1.4 11.7-1.4zm104.3 0c2.4-0.1 8.1 0.8 12.5 1.9 4.4 1.2 9.8 3.1 12 4.4 2.2 1.3 6 4.6 8.5 7.2 2.6 2.7 5.6 6.7 6.7 8.9 1.1 2.2 2.8 6.5 3.6 9.5 0.9 3 1.7 9.8 2.2 24.5l-65.5 0.5v3.5c0 1.9 0.7 5.2 1.5 7.2 0.9 2.1 2.6 4.9 3.8 6.1 1.2 1.3 3.8 3.3 5.9 4.3 2.6 1.3 5.8 1.9 10.3 1.9 4.1 0 7.8-0.6 10.1-1.8 2-0.9 4.6-2.8 5.8-4.2 1.2-1.4 2.3-3 2.6-3.6 0.3-0.8 3.8-1 12.1-0.5 6.4 0.3 11.9 0.8 12.2 1.1 0.4 0.3-0.1 2.7-1.1 5.5-1 2.9-3.6 7.1-6.3 10-2.6 2.7-6.9 6.2-9.6 7.7-2.6 1.4-7.5 3.4-10.8 4.3-4.7 1.4-8.8 1.7-18 1.3-11.4-0.3-12.4-0.5-19.8-4.1-4.8-2.3-9.5-5.5-12.4-8.5-2.5-2.6-5.9-7.4-7.6-10.7-1.6-3.3-3.6-8.9-4.3-12.5-0.8-3.6-1.4-9.7-1.4-13.5-0.1-3.8 0.8-10.4 1.8-14.5 1.1-4.1 2.9-9.5 4.2-12 1.2-2.5 4.8-7.1 7.9-10.3 3.2-3.3 7.9-7 11.1-8.5 3-1.5 8.2-3.2 11.5-3.8 3.3-0.7 8-1.3 10.5-1.3zm-11.5 23.9c-1.7 1.2-4.1 3.6-5.3 5.3-1.2 1.8-2.6 4.9-3 7l-0.7 3.7h40.5c0-3.9-0.5-6.2-1.1-7.8-0.6-1.5-2.3-4-3.8-5.5-1.4-1.6-3.8-3.5-5.1-4.2-1.4-0.7-4.6-1.5-7-1.8-2.5-0.3-6.1-0.2-8 0.3-2 0.5-4.9 1.9-6.5 3zm125-23.9c2.2 0 5 0.1 6.2 0.4 2.2 0.5 2.3 0.9 2.3 12.5 0 11-0.2 12-1.8 11.5-1-0.3-4.4-0.6-7.7-0.7-3.3 0-7.6 0.4-9.5 1-2 0.6-5.2 2.9-7.3 5.1-2.1 2.3-4.2 5.8-4.7 7.8-0.6 2.1-1 16.7-1 61.3l-26.5-0.5-0.5-96.5h26v8c0 4.4 0.3 8 0.7 8 0.4 0 1.3-1.4 1.9-3.2 0.7-1.8 2.9-5.1 5-7.4 2.2-2.2 5.8-4.7 8.4-5.6 2.4-0.9 6.3-1.7 8.5-1.7zm167.7 0c2.6-0.1 8.2 0.6 12.5 1.5 4.3 0.9 9.9 2.7 12.5 4 2.6 1.3 6.3 4 8.3 5.9 1.9 1.9 4.5 5.4 5.7 7.8 2.2 4.1 2.3 5 2.8 79.7h-25v-6.5c0-3.6-0.5-6.7-1-7-0.6-0.3-1.3 0.4-1.5 1.5-0.3 1.1-2.5 3.7-4.9 5.7-2.4 2.1-6.7 4.6-9.7 5.6-3.3 1-8.5 1.7-12.9 1.7-4.4 0-9.8-0.7-13-1.7-3.9-1.2-7-3.2-10.7-6.8-3.9-3.8-5.5-6.3-6.8-10.5-0.8-3-1.6-7.3-1.6-9.5 0-2.2 0.7-6.3 1.6-9 0.8-2.8 2.6-6.5 4-8.3 1.3-1.7 4.6-4.4 7.2-5.9 2.6-1.5 6.8-3.3 9.3-4 2.4-0.8 10.3-2.1 17.5-2.9 7.1-0.9 14.5-2.3 16.5-3.2 2.9-1.5 3.5-2.3 3.7-5.5 0.1-2-0.4-4.9-1.1-6.5-0.8-1.5-3-3.5-5-4.5-2-0.9-5.8-1.7-8.4-1.7-3 0-6.3 0.8-9.1 2.2-2.8 1.4-5 3.5-7.6 8.9l-6.5-0.6c-3.6-0.3-9.1-0.8-12.3-1-3.7-0.3-5.8-1-5.8-1.8 0-0.6 1.5-4.1 3.3-7.6 1.9-3.9 4.9-7.8 7.3-9.7 2.2-1.7 6-4.2 8.5-5.4 2.4-1.2 7.4-2.8 11-3.5 3.5-0.7 8.6-1.4 11.2-1.4zm0 57.3c-5.1 0.9-10.7 2.3-12.5 3.2-1.8 0.9-4 2.6-5 3.8-1 1.2-1.7 3.8-1.7 6.4 0 3.5 0.5 4.7 3.2 7.2 2.1 1.9 4.7 3.3 7.3 3.6 2.2 0.3 5.8 0.3 8 0 2.2-0.3 5.8-1.9 8-3.4 2.2-1.5 4.7-4.5 5.7-6.5 1.2-2.4 1.8-6.1 1.8-10.7 0-3.8-0.4-7-0.8-6.9-0.4 0-1.6 0.4-2.7 0.8-1.1 0.5-6.2 1.6-11.3 2.5zm-121.2-55.4l0.8 3.2c0.5 1.8 4.8 17 9.7 33.8 4.8 16.8 9.1 30.9 9.5 31.5 0.5 0.6 1.7-2.1 2.8-6 1.1-3.8 5.4-18.9 9.6-33.5 4.2-14.6 7.9-27.1 8.1-27.8 0.3-0.9 4.2-1.2 14.5-1.2 7.7 0 14 0.2 14 0.5 0 0.3-3.2 9.6-7.1 20.8-3.9 11.1-11.5 32.6-26.4 75.2l-29.5 0.5-1.7-3.8c-0.8-2-6.3-17.2-12-33.7-5.8-16.5-12.7-36.3-15.4-44-2.7-7.7-4.9-14.3-4.9-14.7 0-0.5 6.3-0.8 28-0.8zm-375.8 136h12.4c10.2 0 12.2 0.2 11.6 1.4-0.4 0.7-4.8 7.3-18.7 27.7l-9.3-0.1c-5.1 0-9.1-0.4-9-0.9 0.1-0.5 3.1-7 6.6-14.5zm176.5 2.3c4.5 0.2 5.7 0.7 8.8 3.7 2.8 2.7 3.7 4.5 4.1 8 0.4 3.5 0 5.3-1.6 7.8-1.1 1.8-3.5 4.1-5.3 5.2-1.8 1.1-4.8 2-6.7 2-1.9 0-5.1-0.8-7-1.7-1.9-1-4.5-3.3-5.8-5.3-1.9-2.8-2.3-4.3-1.9-8 0.4-2.9 1.5-5.5 3.3-7.4 1.4-1.6 3.6-3.3 4.8-3.7 1.1-0.5 4.4-0.7 7.3-0.6zm-324.7 6.7l85.5 0.5v22l-58.5 0.5 0.5 30.5 52.5 0.5v22l-52.5 0.5-0.5 53.5-26.5-0.5zm385 0v130l-26.2-0.5 0.1-64c0-35.2 0.1-64.3 0.1-64.7 0-0.4 5.8-0.8 26-0.8zm-242 31.2c3-0.1 8.4 0.5 12 1.2 3.5 0.8 8.5 2.3 11 3.3 2.4 1.1 6.5 3.8 9 6 2.5 2.3 5.6 6.4 9.5 14.8v73h-25l-0.5-13.5-3.3 4.2c-1.8 2.3-5.7 5.5-8.7 7.2-4.8 2.7-6.8 3.2-14.5 3.5-6.2 0.3-10.8-0.1-14.5-1.1-3.1-0.9-7.5-3.1-10-4.9-2.5-2-5.5-5.4-7-8.3-1.8-3.6-2.6-7-2.9-12-0.2-3.9 0.3-9.1 1-11.6 0.8-3 2.9-6.1 6.3-9.6 4.1-4.1 6.4-5.5 12.1-7.3 3.8-1.2 13.4-3 21.2-4.1 7.9-1.1 15.2-2.5 16.3-3.2 1.1-0.7 2.2-1.9 2.5-2.8 0.3-0.8 0.3-3 0-5-0.3-2-1.8-4.7-3.6-6.5-2.9-2.8-3.6-3-10.7-3-6.4 0-8.3 0.4-11 2.3-1.8 1.2-3.9 3.6-4.7 5.2-1.5 3-1.7 3-7.3 2.6-3.1-0.3-8.8-0.7-19.2-1.6l1-3.2c0.6-1.8 2.1-5.1 3.4-7.3 1.3-2.2 4.5-5.9 7.2-8.3 2.7-2.3 7.3-5.2 10.4-6.3 3-1.1 7.5-2.4 10-2.8 2.4-0.5 6.9-0.9 10-0.9zm-3.5 57.8c-4 0.6-8.5 2-10.5 3.3-1.9 1.2-4.1 3.8-4.8 5.7-1.2 3.1-1.2 4 0.2 7.3 0.9 2.1 2.8 4.5 4.3 5.5 1.9 1.2 4.7 1.7 9.2 1.7 5.4 0 7.5-0.5 11.3-2.7 3.4-2 5.3-4 6.8-7 1.3-2.9 1.9-6.4 2-11 0-3.7-0.4-6.7-0.8-6.6-0.4 0-3 0.7-5.7 1.4-2.8 0.7-8.2 1.8-12 2.4zm112.5-57.4c4.6 0.2 10.7 1.1 13.5 2 2.7 0.8 6.8 2.6 9 3.9 2.2 1.2 6.1 4.7 8.8 7.7 2.6 2.9 5.6 7.6 6.6 10.3 1 2.8 2.1 6.7 3.1 12.5l-25.5 0.1-0.8-3c-0.4-1.7-2.4-4.9-4.5-7.1-2-2.3-5.3-4.6-7.2-5.1-2-0.6-5.7-0.8-8.3-0.5-3.6 0.5-5.8 1.6-8.9 4.4-2.3 2.1-5 5.8-6.1 8.2-1.2 2.8-2.2 7.7-2.5 12.5-0.3 4.4 0 10.5 0.6 13.5 0.7 3.1 2.5 7.7 4.2 10.3 1.9 3 4.5 5.5 7 6.7 2.2 1.2 6 2 8.5 2 2.4 0 6.1-0.7 8.1-1.7 2.1-1 4.7-3.1 6-4.8 1.3-1.6 2.6-4.4 3.9-9.5h25.5l-0.7 3.8c-0.3 2.1-1.2 5.5-2 7.7-0.8 2.2-2.5 5.8-3.7 8-1.3 2.2-4.1 5.6-6.2 7.5-2.2 1.9-6.9 4.8-10.4 6.5-6.3 2.9-7 3-20 3-10.1 0-14.8-0.4-18.5-1.7-2.8-0.9-7.7-3.6-11-6-3.7-2.7-7.6-6.7-10-10.3-2.1-3.3-4.7-8.4-5.8-11.5-1.2-3.4-2.1-9.3-2.5-16-0.4-7.6-0.1-12.5 1.1-18 1-4.3 3.1-9.9 5.2-13.5 1.9-3.3 5.6-7.9 8.2-10.3 2.6-2.4 7-5.5 9.8-6.9 2.7-1.4 7.7-3.1 11-3.9 3.7-0.8 9.2-1.1 14.5-0.8zm84.5 0.9v97l-26.5 0.5-0.2-48.3c-0.1-26.6 0.2-48.6 0.7-49 0.5-0.4 6.5-0.6 26-0.2z"/>
		<path id="Path 2" class="s2" d="m294.9 200.8c-1.7 1.5-6.7 7.9-11.1 14.2-4.3 6.3-11.6 16.8-16.1 23.2-4.5 6.4-13.6 19.5-20.2 28.9-6.6 9.5-13.9 20-16.3 23.3-2.3 3.4-4.7 6-5.2 5.8-0.6-0.1-4.6-3-9.1-6.5-4.4-3.4-9.7-7.2-11.7-8.4-2.1-1.3-5.3-2.3-7.2-2.3-1.9 0-4.9 0.9-6.7 1.9-1.8 1-4.4 3.4-5.8 5.3-1.9 2.4-2.5 4.5-2.5 7.8 0 2.5 0.8 5.8 1.8 7.5 1 1.6 8.5 8.2 16.6 14.5 8.2 6.3 16.5 12.7 18.5 14.2 2 1.5 5 3 6.6 3.4 1.7 0.3 4.6 0.4 6.5 0.1 1.9-0.4 4.8-1.9 6.3-3.4 1.6-1.5 9.5-12.2 17.5-23.8 8-11.6 17.1-24.6 20.2-29 3.1-4.4 10.9-15.4 17.2-24.5 6.3-9.1 14.5-20.9 18.2-26.3 5-7.4 6.6-10.5 6.6-13.2 0-1.9-0.6-5-1.3-6.8-0.7-1.7-2.9-4.4-4.8-5.9-2.8-2.2-4.4-2.7-9.1-2.8-4.7 0-6.2 0.4-8.9 2.7z"/>
		<path id="Path 3" class="s0" d="m66.8 125c-2.1 1.1-4.8 3.7-6 5.8-1.1 2-2.1 5-2.1 6.7 0 1.7 2.8 16.9 6.2 34 3.4 17.1 7.3 36.2 8.6 42.5 1.3 6.3 2.7 13.1 3 15 0.3 1.9-0.1 7.8-0.9 13-0.9 5.2-2.3 14.4-3.3 20.5-1.7 10.8-1.7 11.1 0.3 14.5 1.2 2.1 3.2 3.8 5 4.4 1.6 0.4 4.6 0.6 6.7 0.2 2.6-0.4 4.2-1.4 5.5-3.4 1-1.7 3-10.3 4.7-20.6l3-17.6h35c2.9 19 4.3 27.4 5 31 1 4.9 2 7.1 4.2 8.9 2.3 1.9 3.7 2.3 7.4 2 3.5-0.3 5.2-1 6.7-2.9 1.1-1.4 2.3-3.5 2.6-4.7 0.3-1.3-0.8-10.5-2.4-20.5-2.9-17.5-3-18.5-1.4-22.3 1.1-2.7 1.4-5.6 1.1-9-0.4-3.9-1.2-5.7-3.9-8.3-1.8-1.8-5.1-3.7-7.3-4.2-2.2-0.5-12.2-1-22.3-1-13.7 0-18.3-0.3-18.6-1.2-0.2-0.7-3.1-15.2-6.5-32.3-3.3-17.1-6.6-33.7-7.3-37-0.7-3.3-2.1-7.3-3-8.8-1-1.5-3.3-3.6-5-4.7-1.9-1.1-5-2-7.3-2-2.2 0.1-5.7 1-7.7 2zm175.2 0.3c-1.8 1.2-4.1 3.3-5.1 4.7-1.1 1.4-3.1 8.9-4.8 17.5-1.7 8.3-4.6 22.9-6.5 32.5-2 9.6-4.1 20.1-4.8 23.2l-1.3 5.7c-38.1 0.6-41.4 0.9-44 2.4-1.6 1-4 3.2-5.2 5-1.6 2.3-2.3 4.7-2.3 8.5 0 2.8 0.6 6.2 1.4 7.5 1.1 1.9 1 4.3-1 17.2-1.3 8.3-2.6 17.3-2.9 20-0.5 3.9-0.2 5.7 1.2 8 1.1 1.6 2.9 3.3 4.1 3.8 1.9 0.6 2.5 0.1 4-3 0.9-2 3.1-4.6 4.7-5.9 1.7-1.2 3.9-2.4 5-2.8 1.6-0.5 2.2-2.1 3.3-8.8 0.7-4.6 1.8-11.1 2.5-14.6l1.2-6.2h35c2.9 19 4.1 25.2 4.5 26 0.5 1.1 3-1.7 8.9-10l8.1-11.5c-1-12.7-0.4-17.7 2.8-34 2.2-11 4.2-21.1 4.5-22.5 0.3-1.4 1.6-8.1 3.1-15 1.4-6.9 3.5-16.8 4.6-22 1.1-5.2 2-11 2-12.7 0-1.8-0.9-5.1-2-7.3q-2-4-6-6c-2.2-1.1-5.7-2-7.8-2-2.3 0-5.2 0.9-7.2 2.3zm-118.5 37.2c-1.6 0.8-3.8 2.8-4.7 4.5-1 1.6-1.8 4.3-1.8 6 0 1.7 0.8 4.4 1.8 6 0.9 1.7 3.2 3.7 5 4.5 2.6 1.2 9.6 1.5 39.5 1.5 33.6 0 36.4-0.1 39.7-1.9 1.9-1 4.3-3.4 5.3-5.2 1.1-2.1 1.6-4.5 1.2-6.1-0.3-1.6-1.3-4-2.2-5.5-1-1.4-3.3-3.2-5-4-2.6-1-11.6-1.3-39.5-1.3-29.8 0-36.8 0.3-39.3 1.5zm173.5 109.3c-1.9 0.9-4.1 2.8-5 4.1-1.1 1.7-1.6 6.2-2 17-0.3 8.1-1 15.5-1.6 16.6-0.7 1.1-2.2 2.5-3.5 3.2-1.3 0.6-4.9 1.4-7.9 1.7-4.1 0.3-6.4 1.2-8.9 3.3-1.9 1.5-4 4.6-4.7 6.8-1.1 3-1.1 5-0.4 7.8 0.5 2 2.5 5 4.3 6.7 1.7 1.6 4.8 3.3 6.7 3.6 1.9 0.4 6.2 0.4 9.5 0.1 3.8-0.4 8.4-1.8 12.5-3.8 3.6-1.8 8.5-5.3 11-7.8 2.5-2.5 5.9-7.3 7.5-10.6 3-6 3-6 3-24.2 0-18 0-18.2-2.5-20.8-1.4-1.5-3.7-3.3-5.2-4.1-1.6-0.8-4.3-1.4-6-1.4-1.8 0-4.9 0.8-6.8 1.8z"/>
	</g>
</svg>