<svg width="287" height="126" viewBox="0 0 287 126" fill="none" xmlns="http://www.w3.org/2000/svg">
<path d="M4.55114 53V0.636362H25.2102C29.1648 0.636362 32.5398 1.34375 35.3352 2.75852C38.1477 4.15625 40.2869 6.14204 41.7528 8.71591C43.2358 11.2727 43.9773 14.2812 43.9773 17.7415C43.9773 21.2187 43.2273 24.2102 41.7273 26.7159C40.2273 29.2045 38.054 31.1136 35.2074 32.4432C32.3778 33.7727 28.9517 34.4375 24.929 34.4375H11.0966V25.5398H23.1392C25.2528 25.5398 27.0085 25.25 28.4062 24.6705C29.804 24.0909 30.8438 23.2216 31.5256 22.0625C32.2244 20.9034 32.5739 19.4631 32.5739 17.7415C32.5739 16.0028 32.2244 14.5369 31.5256 13.3438C30.8438 12.1506 29.7955 11.2472 28.3807 10.6335C26.983 10.0028 25.2188 9.6875 23.0881 9.6875H15.6222V53H4.55114ZM32.8295 29.1705L45.8438 53H33.6222L20.8892 29.1705H32.8295ZM68.8615 53.767C64.8217 53.767 61.3445 52.9489 58.4297 51.3125C55.532 49.6591 53.299 47.3239 51.7308 44.3068C50.1626 41.2727 49.3786 37.6847 49.3786 33.5426C49.3786 29.5028 50.1626 25.9574 51.7308 22.9062C53.299 19.8551 55.5064 17.4773 58.353 15.7727C61.2166 14.0682 64.5746 13.2159 68.4268 13.2159C71.0178 13.2159 73.4297 13.6335 75.6626 14.4688C77.9126 15.2869 79.8729 16.5227 81.5433 18.1761C83.2308 19.8295 84.5433 21.9091 85.4808 24.4148C86.4183 26.9034 86.8871 29.8182 86.8871 33.1591V36.1506H53.7251V29.4006H76.6342C76.6342 27.8324 76.2933 26.4432 75.6115 25.233C74.9297 24.0227 73.9837 23.0767 72.7734 22.3949C71.5803 21.696 70.1911 21.3466 68.6058 21.3466C66.9524 21.3466 65.4865 21.7301 64.2081 22.4972C62.9467 23.2472 61.9581 24.2614 61.2422 25.5398C60.5263 26.8011 60.1598 28.2074 60.1428 29.7585V36.1761C60.1428 38.1193 60.5007 39.7983 61.2166 41.2131C61.9496 42.6278 62.9808 43.7188 64.3104 44.4858C65.6399 45.2528 67.2166 45.6364 69.0405 45.6364C70.2507 45.6364 71.3587 45.4659 72.3643 45.125C73.37 44.7841 74.2308 44.2727 74.9467 43.5909C75.6626 42.9091 76.2081 42.0739 76.5831 41.0852L86.657 41.75C86.1456 44.1705 85.0973 46.2841 83.5121 48.0909C81.9439 49.8807 79.9155 51.2784 77.4268 52.2841C74.9553 53.2727 72.1001 53.767 68.8615 53.767ZM126.671 24.9261L116.7 25.5398C116.529 24.6875 116.163 23.9205 115.6 23.2386C115.038 22.5398 114.296 21.9858 113.376 21.5767C112.472 21.1506 111.39 20.9375 110.129 20.9375C108.441 20.9375 107.018 21.2955 105.859 22.0114C104.7 22.7102 104.12 23.6477 104.12 24.8239C104.12 25.7614 104.495 26.554 105.245 27.2017C105.995 27.8494 107.282 28.3693 109.106 28.7614L116.214 30.1932C120.032 30.9773 122.879 32.2386 124.754 33.9773C126.629 35.7159 127.566 38 127.566 40.8295C127.566 43.4034 126.808 45.6619 125.29 47.6051C123.79 49.5483 121.728 51.0653 119.103 52.1562C116.495 53.2301 113.487 53.767 110.077 53.767C104.879 53.767 100.737 52.6847 97.6513 50.5199C94.5831 48.3381 92.7848 45.3722 92.2564 41.6222L102.969 41.0597C103.293 42.6449 104.077 43.8551 105.322 44.6903C106.566 45.5085 108.16 45.9176 110.103 45.9176C112.012 45.9176 113.546 45.5511 114.705 44.8182C115.881 44.0682 116.478 43.1051 116.495 41.929C116.478 40.9403 116.06 40.1307 115.242 39.5C114.424 38.8523 113.163 38.358 111.458 38.017L104.657 36.6619C100.822 35.8949 97.9666 34.5653 96.0916 32.6733C94.2337 30.7812 93.3047 28.3693 93.3047 25.4375C93.3047 22.9148 93.9865 20.7415 95.3501 18.9176C96.7308 17.0938 98.6655 15.6875 101.154 14.6989C103.66 13.7102 106.592 13.2159 109.95 13.2159C114.91 13.2159 118.813 14.2642 121.66 16.3608C124.523 18.4574 126.194 21.3125 126.671 24.9261ZM152.322 53.767C148.283 53.767 144.805 52.9489 141.891 51.3125C138.993 49.6591 136.76 47.3239 135.192 44.3068C133.624 41.2727 132.839 37.6847 132.839 33.5426C132.839 29.5028 133.624 25.9574 135.192 22.9062C136.76 19.8551 138.967 17.4773 141.814 15.7727C144.678 14.0682 148.036 13.2159 151.888 13.2159C154.479 13.2159 156.891 13.6335 159.124 14.4688C161.374 15.2869 163.334 16.5227 165.004 18.1761C166.692 19.8295 168.004 21.9091 168.942 24.4148C169.879 26.9034 170.348 29.8182 170.348 33.1591V36.1506H137.186V29.4006H160.095C160.095 27.8324 159.754 26.4432 159.072 25.233C158.391 24.0227 157.445 23.0767 156.234 22.3949C155.041 21.696 153.652 21.3466 152.067 21.3466C150.413 21.3466 148.947 21.7301 147.669 22.4972C146.408 23.2472 145.419 24.2614 144.703 25.5398C143.987 26.8011 143.621 28.2074 143.604 29.7585V36.1761C143.604 38.1193 143.962 39.7983 144.678 41.2131C145.411 42.6278 146.442 43.7188 147.771 44.4858C149.101 45.2528 150.678 45.6364 152.501 45.6364C153.712 45.6364 154.82 45.4659 155.825 45.125C156.831 44.7841 157.692 44.2727 158.408 43.5909C159.124 42.9091 159.669 42.0739 160.044 41.0852L170.118 41.75C169.607 44.1705 168.558 46.2841 166.973 48.0909C165.405 49.8807 163.376 51.2784 160.888 52.2841C158.416 53.2727 155.561 53.767 152.322 53.767ZM177.456 53V13.7273H188.016V20.5795H188.425C189.141 18.142 190.342 16.3011 192.03 15.0568C193.717 13.7955 195.661 13.1648 197.859 13.1648C198.405 13.1648 198.993 13.1989 199.624 13.267C200.254 13.3352 200.808 13.429 201.286 13.5483V23.2131C200.774 23.0597 200.067 22.9233 199.163 22.804C198.26 22.6847 197.433 22.625 196.683 22.625C195.081 22.625 193.649 22.9744 192.388 23.6733C191.143 24.3551 190.155 25.3097 189.422 26.5369C188.706 27.7642 188.348 29.179 188.348 30.7812V53H177.456ZM244.726 13.7273L230.996 53H218.723L204.993 13.7273H216.499L224.655 41.8267H225.064L233.195 13.7273H244.726ZM260.444 53.7415C257.938 53.7415 255.705 53.3068 253.745 52.4375C251.785 51.5511 250.234 50.2472 249.092 48.5256C247.967 46.7869 247.404 44.6222 247.404 42.0312C247.404 39.8494 247.805 38.017 248.606 36.5341C249.407 35.0511 250.498 33.858 251.879 32.9545C253.259 32.0511 254.827 31.3693 256.583 30.9091C258.356 30.4489 260.214 30.125 262.157 29.9375C264.441 29.6989 266.282 29.4773 267.68 29.2727C269.077 29.0511 270.092 28.7273 270.722 28.3011C271.353 27.875 271.668 27.2443 271.668 26.4091V26.2557C271.668 24.6364 271.157 23.3835 270.134 22.4972C269.129 21.6108 267.697 21.1676 265.839 21.1676C263.879 21.1676 262.319 21.6023 261.16 22.4716C260.001 23.3239 259.234 24.3977 258.859 25.6932L248.785 24.875C249.296 22.4886 250.302 20.4261 251.802 18.6875C253.302 16.9318 255.237 15.5852 257.606 14.6477C259.992 13.6932 262.754 13.2159 265.89 13.2159C268.072 13.2159 270.16 13.4716 272.154 13.983C274.165 14.4943 275.947 15.2869 277.498 16.3608C279.066 17.4347 280.302 18.8153 281.205 20.5028C282.109 22.1733 282.56 24.1761 282.56 26.5114V53H272.231V47.554H271.924C271.293 48.7812 270.45 49.8636 269.393 50.8011C268.336 51.7216 267.066 52.446 265.583 52.9744C264.1 53.4858 262.387 53.7415 260.444 53.7415ZM263.563 46.2244C265.165 46.2244 266.58 45.9091 267.808 45.2784C269.035 44.6307 269.998 43.7614 270.697 42.6705C271.396 41.5795 271.745 40.3437 271.745 38.9631V34.7955C271.404 35.017 270.935 35.2216 270.339 35.4091C269.759 35.5795 269.103 35.7415 268.37 35.8949C267.637 36.0312 266.904 36.1591 266.171 36.2784C265.438 36.3807 264.773 36.4744 264.177 36.5597C262.898 36.7472 261.782 37.0455 260.827 37.4545C259.873 37.8636 259.131 38.4176 258.603 39.1165C258.075 39.7983 257.81 40.6506 257.81 41.6733C257.81 43.1562 258.347 44.2898 259.421 45.0739C260.512 45.8409 261.893 46.2244 263.563 46.2244Z" fill="#2E2E2E"/>
<path d="M4.55114 125V72.6364H39.2216V81.7642H15.6222V94.2415H36.9205V103.369H15.6222V125H4.55114ZM57.1705 125.741C54.6648 125.741 52.4318 125.307 50.4716 124.438C48.5114 123.551 46.9602 122.247 45.8182 120.526C44.6932 118.787 44.1307 116.622 44.1307 114.031C44.1307 111.849 44.5313 110.017 45.3324 108.534C46.1335 107.051 47.2244 105.858 48.6051 104.955C49.9858 104.051 51.554 103.369 53.3097 102.909C55.0824 102.449 56.9403 102.125 58.8835 101.938C61.1676 101.699 63.0085 101.477 64.4062 101.273C65.804 101.051 66.8182 100.727 67.4489 100.301C68.0795 99.875 68.3949 99.2443 68.3949 98.4091V98.2557C68.3949 96.6364 67.8835 95.3835 66.8608 94.4972C65.8551 93.6108 64.4233 93.1676 62.5653 93.1676C60.6051 93.1676 59.0455 93.6023 57.8864 94.4716C56.7273 95.3239 55.9602 96.3977 55.5852 97.6932L45.5114 96.875C46.0227 94.4886 47.0284 92.4261 48.5284 90.6875C50.0284 88.9318 51.9631 87.5852 54.3324 86.6477C56.7188 85.6932 59.4801 85.2159 62.6165 85.2159C64.7983 85.2159 66.8864 85.4716 68.8807 85.983C70.892 86.4943 72.6733 87.2869 74.2244 88.3608C75.7926 89.4347 77.0284 90.8153 77.9318 92.5028C78.8352 94.1733 79.2869 96.1761 79.2869 98.5114V125H68.9574V119.554H68.6506C68.0199 120.781 67.1761 121.864 66.1193 122.801C65.0625 123.722 63.7926 124.446 62.3097 124.974C60.8267 125.486 59.1136 125.741 57.1705 125.741ZM60.2898 118.224C61.892 118.224 63.3068 117.909 64.5341 117.278C65.7614 116.631 66.7244 115.761 67.4233 114.67C68.1222 113.58 68.4716 112.344 68.4716 110.963V106.795C68.1307 107.017 67.6619 107.222 67.0653 107.409C66.4858 107.58 65.8295 107.741 65.0966 107.895C64.3636 108.031 63.6307 108.159 62.8977 108.278C62.1648 108.381 61.5 108.474 60.9034 108.56C59.625 108.747 58.5085 109.045 57.554 109.455C56.5994 109.864 55.858 110.418 55.3295 111.116C54.8011 111.798 54.5369 112.651 54.5369 113.673C54.5369 115.156 55.0739 116.29 56.1477 117.074C57.2386 117.841 58.6193 118.224 60.2898 118.224ZM59.1136 80.6648L64.5341 69.0312H74.608L66.8097 80.6648H59.1136ZM105.482 125.767C101.459 125.767 97.9986 124.915 95.1009 123.21C92.2202 121.489 90.0043 119.102 88.4531 116.051C86.919 113 86.152 109.489 86.152 105.517C86.152 101.494 86.9276 97.9659 88.4787 94.9318C90.0469 91.8807 92.2713 89.5028 95.152 87.7983C98.0327 86.0767 101.459 85.2159 105.43 85.2159C108.857 85.2159 111.857 85.8381 114.43 87.0824C117.004 88.3267 119.041 90.0739 120.541 92.3239C122.041 94.5739 122.868 97.2159 123.021 100.25H112.743C112.453 98.2898 111.686 96.7131 110.442 95.5199C109.214 94.3097 107.604 93.7045 105.609 93.7045C103.922 93.7045 102.447 94.1648 101.186 95.0852C99.9418 95.9886 98.9702 97.3097 98.2713 99.0483C97.5724 100.787 97.223 102.892 97.223 105.364C97.223 107.869 97.5639 110 98.2457 111.756C98.9446 113.511 99.9247 114.849 101.186 115.77C102.447 116.69 103.922 117.151 105.609 117.151C106.854 117.151 107.97 116.895 108.959 116.384C109.964 115.872 110.791 115.131 111.439 114.159C112.104 113.17 112.538 111.986 112.743 110.605H123.021C122.851 113.605 122.033 116.247 120.567 118.531C119.118 120.798 117.115 122.571 114.558 123.849C112.001 125.128 108.976 125.767 105.482 125.767ZM129.995 125V85.7273H140.887V125H129.995ZM135.467 80.6648C133.847 80.6648 132.458 80.1278 131.299 79.054C130.157 77.9631 129.586 76.6591 129.586 75.142C129.586 73.642 130.157 72.3551 131.299 71.2812C132.458 70.1903 133.847 69.6449 135.467 69.6449C137.086 69.6449 138.467 70.1903 139.609 71.2812C140.768 72.3551 141.347 73.642 141.347 75.142C141.347 76.6591 140.768 77.9631 139.609 79.054C138.467 80.1278 137.086 80.6648 135.467 80.6648ZM160.504 72.6364V125H149.612V72.6364H160.504Z" fill="#2E2E2E"/>
</svg>
