<?xml version="1.0" encoding="utf-8" ?>
<svg xmlns="http://www.w3.org/2000/svg" xmlns:xlink="http://www.w3.org/1999/xlink" width="680" height="744">
	<path fill="#FA7720" d="M165.051 2.67578C170.152 2.22314 176.116 3.80056 180.273 6.80807C184.428 9.81471 187.586 14.4362 189.047 19.3383C191.459 27.4342 190.276 50.6389 190.255 60.3422C190.248 64.0349 190.007 68.0054 190.645 71.6483C190.668 71.7795 190.696 71.9099 190.721 72.0407C215.221 71.7407 239.753 72.0343 264.258 72.0362L409.301 72.0429C436.065 72.0432 462.945 72.5773 489.696 71.9171C490.52 60.6094 489.852 48.8712 489.823 37.5131C489.809 32.1211 489.464 26.3302 490.559 21.0334C491.287 17.4331 492.884 14.0654 495.211 11.2239C499.164 6.35512 504.839 3.51648 511.039 2.87609C517.682 2.18995 524.251 3.433 529.462 7.80343C533.177 10.9191 535.946 15.4436 537.198 20.1162C538.773 25.9896 538.145 32.6055 538.122 38.6349C538.079 49.6013 537.554 61.0295 538.456 71.9483C551.686 72.0364 564.917 72.0553 578.147 72.0049C587.21 72.0013 596.412 71.7428 605.43 72.8132C623.059 74.9857 639.483 82.9001 652.167 95.3351C668.334 110.983 677.473 132.513 677.5 155.014L677.505 298.417L677.531 339.603C677.541 347.99 678.17 356.92 676.8 365.206C675.932 370.458 672.568 375.856 668.845 379.587C662.987 385.46 655.578 388.242 647.334 388.164C635.216 388.109 624.4 380.553 620.177 369.194C616.754 360.077 618.12 334.417 618.119 323.296L618.096 201.585L618.165 169.514C618.185 163.466 618.672 156.914 617.764 150.937C617.05 146.233 614.556 141.573 611.202 138.22C608.294 135.312 604.282 133.117 600.28 132.184C592.347 130.334 581.868 131.272 573.612 131.275L538.329 131.217C537.962 141.956 538.245 152.768 538.276 163.516C538.294 169.725 538.843 176.601 537.471 182.683C536.656 186.321 534.954 189.701 532.516 192.522C528.22 197.436 522.13 200.419 515.614 200.8C508.982 201.22 502.953 199.247 497.991 194.801C494.888 192.022 492.246 188.421 491.042 184.398C489.089 177.866 489.796 170.157 489.811 163.383C489.835 152.818 490.27 141.929 489.637 131.404C482.491 130.958 475.231 131.223 468.066 131.219L429.709 131.204L309.766 131.186L228.247 131.226L204.116 131.18C199.575 131.17 194.863 130.896 190.356 131.429C189.731 142.548 190.301 153.981 190.316 165.133C190.324 171.082 190.816 177.645 189.298 183.435C188.36 187.012 186.538 190.221 184.055 192.953C179.502 197.96 173.601 200.45 166.898 200.775C160.444 201.121 154.133 198.798 149.443 194.351C146.431 191.544 144.166 188.161 143.038 184.185C141.034 177.129 141.831 168.779 141.835 161.477C141.84 151.432 142.045 141.336 141.708 131.298C140.793 131.245 139.877 131.205 138.961 131.18C128.706 130.911 118.365 131.203 108.101 131.215C99.9322 131.225 87.9014 130.342 80.1391 132.16C75.864 133.149 71.9334 135.27 68.759 138.3C63.4466 143.469 61.8904 150.231 61.7765 157.42L61.786 496.328L61.7855 605.508L61.7528 639.879C61.7445 646.526 61.4209 653.336 61.9466 659.955C62.7485 670.048 68.8467 678.019 78.4815 681.298C84.9874 683.513 124.436 682.412 133.369 682.404L298.6 682.504L348.218 682.474C356.726 682.466 365.957 681.711 374.372 682.843C379.933 683.592 384.945 686.349 389.149 689.966C394.905 694.918 398.48 702.353 398.978 709.911C399.485 717.608 397.202 725.395 392.031 731.21C385.746 738.279 378.316 741.088 369.029 741.567C361.415 741.961 353.712 741.682 346.089 741.663L310.766 741.713L192.38 741.625L119.992 741.641C103.634 741.676 86.3752 742.929 70.2508 740.067C55.1218 737.339 41.0771 730.375 29.7484 719.982C13.6149 705.551 3.95103 685.246 2.92562 663.623C2.29516 650.124 2.84227 636.446 2.8593 622.928L2.84853 547.783L2.81612 316.887L2.84866 199.993L2.74162 169.135C2.68078 160.061 2.34016 150.811 3.63013 141.803C5.94078 125.668 13.7444 110.493 24.7172 98.5316C37.8199 84.3047 55.5618 75.2112 74.7613 72.8815C82.5528 71.9428 90.4586 72.0625 98.2943 72.0406C112.707 72.0004 127.315 72.528 141.699 71.8643C142.097 67.4698 141.87 62.9799 141.862 58.5694L141.825 36.7106C141.807 31.3732 141.472 25.6798 142.684 20.4486C143.471 16.9485 145.093 13.691 147.413 10.9545C152.105 5.43511 158 3.25091 165.051 2.67578Z"/>
	<path fill="#FA7720" d="M145.912 267.856C153.551 266.845 161.673 268.456 168.048 272.872C173.263 276.485 177.779 282.02 180.049 287.971C182.259 293.764 183.136 300.618 184.357 306.711L190.934 339.779C198.612 378.119 206.608 416.419 213.845 454.845L270.448 454.871C280.195 454.87 291.262 454.001 300.817 455.522C304.965 456.182 308.689 457.675 312.183 460.015C319.382 464.836 324.699 472.712 326.29 481.24C328.163 491.281 325.194 499.415 319.629 507.637C319.875 511.715 320.859 515.819 321.522 519.854L328.395 563.108C329.739 571.559 332.472 582.897 331.957 591.128C331.719 594.919 330.181 598.611 327.95 601.658C324.646 606.248 319.618 609.298 314.021 610.106C308.288 610.988 302.439 609.559 297.758 606.135C294.668 603.852 291.848 600.394 290.513 596.767C288.318 590.805 287.852 583.178 286.853 576.893L280.665 537.363C279.558 531.424 278.978 525.404 277.813 519.465C266.011 518.986 254.162 519.22 242.351 519.219C227.799 519.138 213.247 519.202 198.697 519.41L191.136 568.144C189.862 576.526 189.194 585.62 187.052 593.805C186.331 596.558 185.226 599.154 183.583 601.486C180.24 606.186 175.134 609.331 169.433 610.201C163.744 611.103 157.593 609.48 152.965 606.088C149.41 603.483 146.449 599.519 145.353 595.21C143.129 586.468 148.556 561.276 150.121 551.167L155.426 517.506C156.105 513.124 157.481 508.398 157.427 503.967C157.353 497.92 155.33 491.246 154.127 485.316L147.778 453.754L127.832 353.43C124.75 337.849 120.841 322.193 118.429 306.507C117.016 297.32 118.077 288.377 123.771 280.797C129.392 273.313 136.71 269.166 145.912 267.856Z"/>
	<path fill="#FA7720" d="M526.428 267.872C534.923 267.145 543.047 268.687 549.814 274.111C557.038 279.902 561.646 288.268 562.224 297.534C562.817 307.037 556.694 331.749 554.566 342.414L531.59 457.245L525.576 487.312C524.588 492.099 522.874 497.408 522.645 502.249C522.303 509.459 525.007 516.935 525.736 524.111C525.914 525.864 525.903 527.677 525.097 529.282C522.8 533.862 517.194 540.559 514.019 545.013C506.268 555.888 498.804 567.315 490.447 577.712C487.349 558.35 483.966 538.977 481.46 519.529C471.926 518.677 462.071 519.146 452.502 519.149L402.266 519.212C400.09 534.531 397.65 549.873 395.078 565.132C394.319 570.683 393.274 576.214 392.337 581.74C389.804 582.884 387.114 583.664 384.586 584.844C372.029 590.706 368.86 597.989 362.871 609.562C358.801 607.941 355.141 605.591 352.43 602.1C350.053 599.037 348.474 595.078 348.193 591.204C347.6 583.024 349.997 573.779 351.275 565.665L357.021 529.515C358.195 522.263 359.581 514.987 360.451 507.695C356.281 501.712 353.452 495.67 353.278 488.275C353.07 479.478 356.11 471.071 362.254 464.731C366.089 460.774 371.279 457.42 376.675 456.105C385.982 453.837 400.83 454.889 410.76 454.89C429.232 454.965 447.705 454.92 466.177 454.756L489.237 339.374L495.725 306.539C496.815 301.13 497.663 295.493 499.224 290.205C500.297 286.465 502.108 282.977 504.548 279.946C510.131 272.896 517.563 268.919 526.428 267.872Z"/>
	<path fill="#FA7720" d="M647.485 586.123C652.506 586.175 657.533 587.046 661.99 589.446C668.878 593.172 674.002 599.484 676.234 606.991C678.659 615.387 677.445 631.859 677.464 641.222C677.48 648.955 677.904 656.705 677.483 664.433C677.331 667.222 676.958 669.959 676.45 672.704C674.696 682.231 671.358 691.397 666.576 699.822C656.05 718.451 637.366 732.836 616.777 738.524C612.491 739.707 594.412 743.085 590.824 741.066C590.219 741.448 589.741 741.566 589.039 741.612C582.343 742.045 574.282 738.413 569.32 734.077C563.408 728.946 559.847 721.624 559.46 713.805C559.043 706.036 561.493 698.209 566.721 692.398C571.352 687.251 578.333 683.403 585.26 682.659C588.549 682.306 591.907 682.527 595.211 682.306C605.54 681.615 614.854 675.108 617.363 664.715C618.469 660.135 618.224 655.22 618.212 650.538L618.149 629.75C618.115 617.692 617.171 605.295 625.832 595.68C631.617 589.259 639.044 586.624 647.485 586.123Z"/>
	<path fill="#FA7720" d="M269.041 350.733L370.206 350.728L402.278 350.702C408.44 350.699 414.887 350.329 421.007 351.023C425.385 351.52 429.056 352.758 432.539 355.495C437.704 359.582 441.028 365.56 441.773 372.105C442.512 378.464 440.668 384.855 436.654 389.843C431.879 395.667 425.788 398.117 418.473 398.828L313.634 398.82L282.808 398.826C276.38 398.832 269.541 399.298 263.182 398.283C258.467 397.53 254.665 395.499 251.165 392.255C246.474 387.938 243.715 381.916 243.509 375.544C243.312 369.119 245.469 362.821 249.929 358.156C255.25 352.592 261.581 350.956 269.041 350.733Z"/>
	<path fill="#4AA74B" d="M480.2 644.276C483.059 639.37 486.776 634.707 490.016 630.026C496.625 620.426 503.293 610.868 510.02 601.351L556.037 535.378L602.534 468.706L615.406 450.214C617.912 446.616 620.33 442.763 623.207 439.461C627.538 434.488 632.882 430.894 639.258 429.128C647.634 426.82 656.585 427.946 664.129 432.256C674.183 438.109 677.147 445.368 680 456.021L680 464.532C678.791 469.233 677.603 473.599 675.094 477.813C672.166 482.733 668.582 487.371 665.29 492.058L649.118 515.131L608.038 574.074L545.608 663.54L526.272 691.18C522.167 697.09 518.215 703.166 513.901 708.923C508.364 716.313 501.153 721.125 491.925 722.415C486.384 723.19 479.796 722.635 474.644 720.333C466.455 716.674 456.727 707.779 449.389 702.148L402.785 666.384C393.849 659.631 387.151 652.838 385.616 641.212C384.52 632.907 386.859 623.843 391.997 617.202C397.235 610.469 404.969 606.136 413.445 605.186C419.021 604.541 425.101 605.046 430.316 607.225C437.849 610.372 448.107 619.605 454.911 624.847C463.328 631.33 471.883 637.668 480.2 644.276Z"/>
</svg>
